<svg xmlns="http://www.w3.org/2000/svg" width="256" height="256" viewBox="0 0 100 100"><rect width="100" height="100" rx="0" fill="#2e3192"></rect><path d="M15.94 64.59L15.94 64.59Q14.98 64.59 14.41 64.02Q13.83 63.44 13.83 62.48L13.83 62.48L13.83 37.52Q13.83 36.56 14.41 35.98Q14.98 35.41 15.94 35.41L15.94 35.41L31.88 35.41Q32.02 35.65 32.17 36.06Q32.31 36.46 32.31 36.94L32.31 36.94Q32.31 37.76 31.93 38.24Q31.54 38.72 30.82 38.72L30.82 38.72L17.72 38.72L17.72 47.98L30.39 47.98Q30.54 48.22 30.68 48.63Q30.82 49.04 30.82 49.52L30.82 49.52Q30.82 50.34 30.44 50.79Q30.06 51.25 29.34 51.25L29.34 51.25L17.72 51.25L17.72 61.33L32.12 61.33Q32.26 61.57 32.41 61.95Q32.55 62.34 32.55 62.86L32.55 62.86Q32.55 63.68 32.17 64.14Q31.78 64.59 31.06 64.59L31.06 64.59L15.94 64.59ZM43.26 53.55L43.26 64.50Q42.97 64.59 42.49 64.71Q42.01 64.83 41.43 64.83L41.43 64.83Q39.32 64.83 39.32 63.06L39.32 63.06L39.32 37.52Q39.32 36.75 39.70 36.34Q40.09 35.94 40.90 35.70L40.90 35.70Q42.30 35.26 44.34 35.07Q46.38 34.88 48.30 34.88L48.30 34.88Q54.34 34.88 57.30 37.30Q60.25 39.73 60.25 44.19L60.25 44.19Q60.25 47.50 58.54 49.76Q56.84 52.02 53.38 52.98L53.38 52.98Q54.58 54.51 55.78 56.05Q56.98 57.58 58.06 58.95Q59.14 60.32 59.98 61.42Q60.82 62.53 61.30 63.15L61.30 63.15Q61.11 63.97 60.46 64.45Q59.82 64.93 59.14 64.93L59.14 64.93Q58.33 64.93 57.80 64.54Q57.27 64.16 56.70 63.34L56.70 63.34L49.69 53.55L43.26 53.55ZM43.21 50.29L48.73 50.29Q52.28 50.29 54.30 48.75Q56.31 47.22 56.31 44.19L56.31 44.19Q56.31 41.17 54.20 39.66Q52.09 38.14 48.15 38.14L48.15 38.14Q46.86 38.14 45.54 38.26Q44.22 38.38 43.21 38.58L43.21 38.58L43.21 50.29ZM75.66 61.95L75.66 61.95Q78.87 61.95 80.53 60.49Q82.18 59.02 82.18 56.72L82.18 56.72Q82.18 54.70 80.91 53.46Q79.64 52.21 76.90 51.39L76.90 51.39L72.73 50.14Q69.66 49.23 67.90 47.46Q66.15 45.68 66.15 42.66L66.15 42.66Q66.15 40.83 66.85 39.37Q67.54 37.90 68.84 36.90Q70.14 35.89 71.94 35.34Q73.74 34.78 75.99 34.78L75.99 34.78Q77.91 34.78 79.57 35.10Q81.22 35.41 82.45 35.96Q83.67 36.51 84.34 37.18Q85.02 37.86 85.02 38.58L85.02 38.58Q85.02 39.25 84.68 39.73Q84.34 40.21 83.82 40.50L83.82 40.50Q82.57 39.54 80.58 38.82Q78.58 38.10 76.14 38.10L76.14 38.10Q73.30 38.10 71.70 39.30Q70.09 40.50 70.09 42.66L70.09 42.66Q70.09 44.34 71.24 45.39Q72.39 46.45 75.08 47.22L75.08 47.22L78.01 48.08Q81.80 49.18 83.98 51.18Q86.17 53.17 86.17 56.72L86.17 56.72Q86.17 60.51 83.43 62.86Q80.70 65.22 75.66 65.22L75.66 65.22Q73.45 65.22 71.65 64.83Q69.85 64.45 68.58 63.82Q67.30 63.20 66.61 62.46Q65.91 61.71 65.91 60.99L65.91 60.99Q65.91 60.18 66.42 59.62Q66.92 59.07 67.59 58.83L67.59 58.83Q68.12 59.36 68.89 59.91Q69.66 60.46 70.66 60.92Q71.67 61.38 72.92 61.66Q74.17 61.95 75.66 61.95Z" fill="#fff"></path></svg>