<svg width="32" height="32" viewBox="0 0 32 32" version="1.1" xmlns="http://www.w3.org/2000/svg">
    <g transform="matrix(0.94108,0,0,0.957027,1,0.687501)">
        <path d="M15.952,0.327C7.131,0.327 0,7.51 0,16.397C0,23.501 4.569,29.515 10.908,31.643C11.7,31.803 11.991,31.297 11.991,30.872C11.991,30.499 11.964,29.222 11.964,27.892C7.527,28.85 6.603,25.976 6.603,25.976C5.89,24.113 4.833,23.635 4.833,23.635C3.381,22.65 4.939,22.65 4.939,22.65C6.55,22.757 7.395,24.3 7.395,24.3C8.821,26.747 11.119,26.056 12.043,25.63C12.175,24.592 12.598,23.874 13.047,23.475C9.508,23.102 5.784,21.719 5.784,15.546C5.784,13.79 6.418,12.353 7.421,11.236C7.263,10.837 6.708,9.187 7.58,6.978C7.58,6.978 8.927,6.552 11.964,8.628C13.264,8.276 14.605,8.097 15.952,8.096C17.299,8.096 18.672,8.282 19.94,8.628C22.978,6.552 24.325,6.978 24.325,6.978C25.196,9.187 24.641,10.837 24.483,11.236C25.513,12.353 26.12,13.79 26.12,15.546C26.12,21.719 22.397,23.076 18.831,23.475C19.412,23.98 19.914,24.938 19.914,26.455C19.914,28.61 19.888,30.34 19.888,30.872C19.888,31.297 20.178,31.803 20.97,31.643C27.309,29.514 31.878,23.501 31.878,16.397C31.904,7.51 24.747,0.327 15.952,0.327Z"
              style="fill:rgb(240,246,252);"/>
    </g>
</svg>
