<?xml version="1.0" ?><svg id="Image" style="enable-background:new 0 0 32 32;" version="1.1" viewBox="0 0 32 32" xml:space="preserve" xmlns="http://www.w3.org/2000/svg" xmlns:xlink="http://www.w3.org/1999/xlink"><style type="text/css">
	.st0{fill:#D2ECFA;}
	.st1{fill:#20AD74;}
	.st2{fill:#FBC34E;}
</style><g><path class="st0" d="M2.163,25.953l6.783-10.392c0.369-0.566,1.306-0.566,1.675,0l2.668,4.088l5.459-8.72   c0.183-0.292,0.503-0.469,0.848-0.469s0.665,0.178,0.848,0.47l9.405,15.04c0.107,0.171,0.152,0.367,0.146,0.562   c0-0.011,0.006-0.02,0.006-0.031v-21c0-0.552-0.447-1-1-1H3c-0.552,0-1,0.448-1,1v21c0,0.015,0.008,0.027,0.008,0.042   C2,26.337,2.047,26.131,2.163,25.953z M9.5,13.804c-1.654,0-3-1.346-3-3s1.346-3,3-3s3,1.346,3,3S11.154,13.804,9.5,13.804z"/><path class="st1" d="M29.994,26.531c0.006-0.195-0.039-0.39-0.146-0.562l-9.405-15.04c-0.183-0.292-0.503-0.47-0.848-0.47   s-0.665,0.177-0.848,0.469l-5.459,8.72l-2.668-4.088c-0.369-0.566-1.306-0.566-1.675,0L2.163,25.953   C1.733,26.593,2.232,27.509,3,27.5h26C29.525,27.495,29.987,27.061,29.994,26.531z"/><circle class="st2" cx="9.5" cy="10.804" r="3"/></g></svg>